<svg width="60" height="60" viewBox="0 0 60 60" fill="none" xmlns="http://www.w3.org/2000/svg">
<path d="M30.0134 56C33.5639 56 36.9092 55.3131 40.0494 53.9393C43.1896 52.5833 45.9551 50.7099 48.3459 48.3191C50.7367 45.9283 52.6101 43.1717 53.966 40.0494C55.322 36.9092 56 33.555 56 29.9866C56 26.4361 55.3131 23.0908 53.9393 19.9506C52.5833 16.8104 50.7099 14.0449 48.3191 11.6541C45.9283 9.26334 43.1628 7.38995 40.0226 6.03397C36.8825 4.67799 33.5371 4 29.9866 4C26.4361 4 23.0908 4.67799 19.9506 6.03397C16.8283 7.38995 14.0628 9.26334 11.6541 11.6541C9.26334 14.0449 7.38995 16.8104 6.03397 19.9506C4.67799 23.0908 4 26.4361 4 29.9866C4 33.555 4.67799 36.9092 6.03397 40.0494C7.40779 43.1717 9.2901 45.9283 11.6809 48.3191C14.0717 50.7099 16.8283 52.5833 19.9506 53.9393C23.0908 55.3131 26.445 56 30.0134 56ZM29.9866 51.9321C28.0775 51.9321 26.1774 51.6734 24.2862 51.1559C22.3949 50.6385 20.6018 49.8981 18.9068 48.9346C17.2297 47.9712 15.7399 46.8025 14.4375 45.4287C15.3831 43.9835 16.632 42.7524 18.1843 41.7355C19.7543 40.7006 21.5385 39.9156 23.5368 39.3803C25.5529 38.8272 27.7029 38.5507 29.9866 38.5507C32.2525 38.5507 34.3846 38.8183 36.3829 39.3536C38.3812 39.8888 40.1654 40.6739 41.7355 41.7087C43.3055 42.7257 44.5634 43.9657 45.509 45.4287C44.2244 46.8025 42.7346 47.9712 41.0396 48.9346C39.3625 49.8981 37.5783 50.6385 35.6871 51.1559C33.7958 51.6734 31.8957 51.9321 29.9866 51.9321ZM29.9866 34.2419C28.3452 34.2241 26.8643 33.7958 25.544 32.9573C24.2237 32.1009 23.171 30.959 22.386 29.5317C21.6188 28.0865 21.2352 26.445 21.2352 24.6073C21.2352 22.8945 21.6188 21.3244 22.386 19.8971C23.171 18.4697 24.2237 17.3278 25.544 16.4714C26.8821 15.615 28.363 15.1868 29.9866 15.1868C31.6102 15.1868 33.0822 15.615 34.4025 16.4714C35.7228 17.3278 36.7754 18.4697 37.5605 19.8971C38.3455 21.3244 38.738 22.8945 38.738 24.6073C38.738 26.445 38.3455 28.0954 37.5605 29.5584C36.7933 31.0036 35.7495 32.1544 34.4292 33.0108C33.1089 33.8494 31.6281 34.2597 29.9866 34.2419Z" fill="black" fill-opacity="0.3"/>
</svg>
